Coordinates
version=1
nRows=8
nColumns=36
inDegrees=yes

Units are S.I. units (second, meters, Newtons, ...)
If the header above contains a line with 'inDegrees', this indicates whether rotational values are in degrees (yes) or radians (no).

endheader
time	pelvis_tilt	pelvis_list	pelvis_rotation	pelvis_tx	pelvis_ty	pelvis_tz	hip_flexion_r	hip_adduction_r	hip_rotation_r	knee_angle_r	knee_angle_r_beta	ankle_angle_r	subtalar_angle_r	mtp_angle_r	hip_flexion_l	hip_adduction_l	hip_rotation_l	knee_angle_l	knee_angle_l_beta	ankle_angle_l	subtalar_angle_l	mtp_angle_l	lumbar_extension	lumbar_bending	lumbar_rotation	arm_flex_r	arm_add_r	arm_rot_r	elbow_flex_r	pro_sup_r	arm_flex_l	arm_add_l	arm_rot_l	elbow_flex_l	pro_sup_l
      0.00000000	      2.37713180	      1.60199216	      6.08924033	     -0.14923095	      0.91657108	     -0.29954693	     23.14534131	     -4.40942314	    -13.46340363	      4.78990368	      0.08359959	     -0.72233359	    -18.49658284	     -4.99567524	    -20.97126549	     -1.93566695	     -4.27470139	     17.47957421	      0.30507612	      8.48840075	     -6.19132766	     -4.99567524	     -7.63688037	      0.11430492	    -10.93208112	    -18.02845052	     -1.12517285	    -26.99423302	     26.65138766	    111.29812023	     10.98241143	     -8.43137418	     -2.22652903	     49.84774119	    107.78737916
      0.01000000	      2.53023580	      1.04484200	      5.84488276	     -0.13360812	      0.91755715	     -0.29645896	     23.00444839	     -3.71833603	    -13.69185818	      6.28129532	      0.10962928	     -1.82310824	    -18.73455017	     -5.02133591	    -20.66315350	     -2.91796879	     -4.96899936	     19.71091385	      0.34402035	      6.07837597	     -6.58924761	     -5.02133591	     -7.67832052	      0.80754871	    -10.34316815	    -17.80324841	     -1.36530578	    -27.04113823	     26.22320096	    111.51912251	     10.20029359	     -7.99884509	     -2.52893370	     49.07850764	    107.86496531
      0.02000000	      2.28853869	      0.50767993	      5.58385229	     -0.11794268	      0.91810402	     -0.29348878	     23.26057960	     -3.04637670	    -13.34424706	      7.72481692	      0.13482349	     -3.79631935	    -20.32549549	     -5.13240544	    -19.98797159	     -3.64274699	     -4.77973663	     21.73187016	      0.37929269	      2.87526339	     -8.85658740	     -5.13240544	     -7.17973239	      1.44714115	     -9.97476001	    -17.51704920	     -1.70050682	    -27.01464548	     25.63522373	    112.28443549	      9.23460207	     -7.42484651	     -3.49115884	     47.97792363	    108.35825223
      0.03000000	      2.24166575	     -0.11010891	      5.27580106	     -0.10226745	      0.91896365	     -0.29039764	     23.28915426	     -2.28786083	    -13.29901524	      9.22811781	      0.16106104	     -4.89341443	    -20.99898727	     -5.22287953	    -19.29523722	     -4.58050161	     -5.14560981	     24.15237228	      0.42153842	      0.08125401	     -9.99835585	     -5.22287953	     -6.94433200	      2.20755064	     -9.49337399	    -17.31633370	     -2.00350979	    -27.05258477	     25.53561831	    112.60559908	      8.24678295	     -6.91586185	     -4.19657815	     47.11622981	    108.64520228
      0.04000000	      2.25594340	     -0.72878983	      4.89166728	     -0.08669317	      0.92007352	     -0.28723817	     23.22114850	     -1.50401917	    -13.23257376	     10.74097057	      0.18746530	     -5.66561304	    -21.60117812	     -5.32413893	    -18.46793931	     -5.49800907	     -5.53580080	     26.83480321	      0.46835567	     -3.13051701	    -11.52229763	     -5.32413893	     -6.80780740	      2.97319188	     -8.89506247	    -17.08857631	     -2.30406337	    -27.16983801	     25.54310520	    112.80677061	      7.28456911	     -6.37035398	     -4.92995535	     46.20660792	    108.88893451
      0.05000000	      2.33623355	     -1.46476979	      4.43148504	     -0.07122468	      0.92136352	     -0.28387356	     22.99367591	     -0.55168927	    -13.24755139	     12.14059259	      0.21189331	     -5.90556019	    -21.76854815	     -5.35355342	    -17.43760965	     -6.65120846	     -6.28226937	     29.95910273	      0.52288498	     -5.93804322	    -12.17515463	     -5.35355342	     -6.76267942	      3.85716731	     -8.14261827	    -16.86207250	     -2.63069619	    -27.22260573	     25.68681370	    112.85238808	      6.33779281	     -5.85318618	     -5.41484885	     45.29705628	    108.85759603
      0.06000000	      2.32287407	     -1.96668404	      3.89786579	     -0.05622879	      0.92269941	     -0.28068165	     22.84252092	      0.16721059	    -12.99583031	     13.51722568	      0.23592009	     -6.15492377	    -22.16663783	     -5.44641651	    -16.12610304	     -7.33802289	     -6.47435167	     33.16253647	      0.57879545	    -10.19990667	    -15.14318503	     -5.44641651	     -6.66606559	      4.49242504	     -7.30875244	    -16.63601335	     -2.90235300	    -27.48143728	     26.11178075	    112.96405001	      5.52034266	     -5.20022396	     -6.41168579	     44.04749230	    108.96519763
      0.07000000	      2.37267312	     -2.54243090	      3.29996451	     -0.04152189	      0.92414591	     -0.27733164	     22.50216382	      1.03178008	    -12.80391569	     14.64025259	      0.25552061	     -5.98870355	    -22.30352324	     -5.53359898	    -14.67980606	     -8.19925750	     -6.93451917	     36.62045133	      0.63914745	    -13.82781915	    -17.17533029	     -5.53359898	     -6.69244667	      5.18934899	     -6.35028808	    -16.37249039	     -3.19864499	    -27.66378717	     26.64589596	    113.05415842	      4.72641980	     -4.62600322	     -7.17819041	     42.86996301	    109.04763787
